<svg width="13" height="13" viewBox="0 0 13 13" fill="none" xmlns="http://www.w3.org/2000/svg">
<path d="M8.92908 0.489746H4.07057C2.09608 0.489746 0.489746 2.09608 0.489746 4.07057V8.92908C0.489746 10.9035 2.09608 12.51 4.07061 12.51H8.92912C10.9035 12.51 12.51 10.9036 12.51 8.92908V4.07057C12.5099 2.09608 10.9036 0.489746 8.92908 0.489746ZM11.3007 8.92912C11.3007 10.2389 10.2389 11.3007 8.92912 11.3007H4.07061C2.76082 11.3007 1.69901 10.2389 1.69901 8.92912V4.07061C1.69901 2.76082 2.76082 1.69897 4.07061 1.69897H8.92912C10.2389 1.69897 11.3007 2.76086 11.3007 4.07061V8.92912Z" fill="white"/>
</svg>
